<svg aria-hidden="true" style="position: absolute; width: 0; height: 0; overflow: hidden;" version="1.1" xmlns="http://www.w3.org/2000/svg" xmlns:xlink="http://www.w3.org/1999/xlink">
<defs>
<symbol id="icon-arrow" viewBox="0 0 32 32">
<path fill="#fff" style="fill: var(--color1, #fff)" d="M20.331 14.644l-13.794-13.831 17.55 10.075-3.756 3.756zM2.938 0c-0.813 0.425-1.356 1.2-1.356 2.206v27.581c0 1.006 0.544 1.781 1.356 2.206l16.038-16-16.038-15.994zM29.513 14.1l-3.681-2.131-4.106 4.031 4.106 4.031 3.756-2.131c1.125-0.894 1.125-2.906-0.075-3.8zM6.537 31.188l17.55-10.075-3.756-3.756-13.794 13.831z"></path>
</symbol>
<symbol id="icon-location" viewBox="0 0 36 32">
<path fill="#ec4899" style="fill: var(--color2, #ec4899)" d="M25.689 7.5c0 3.413-4.603 9.494-6.624 12-0.485 0.6-1.385 0.6-1.864 0-2.021-2.506-6.624-8.587-6.624-12 0-4.144 3.381-7.5 7.556-7.5s7.556 3.356 7.556 7.5zM26.193 12.525c0.22-0.431 0.422-0.863 0.604-1.287 0.031-0.075 0.063-0.156 0.095-0.231l7.304-2.9c0.995-0.394 2.071 0.331 2.071 1.394v16.925c0 0.613-0.378 1.163-0.951 1.394l-9.123 3.619v-18.913zM8.664 8.644c0.151 0.881 0.453 1.769 0.806 2.594 0.183 0.425 0.384 0.856 0.604 1.287v15.713l-8.003 3.181c-0.995 0.394-2.071-0.331-2.071-1.394v-16.925c0-0.612 0.378-1.162 0.951-1.394l7.713-3.063zM20.639 20.75c0.875-1.087 2.248-2.856 3.539-4.812v15.581l-12.089-3.431v-12.15c1.291 1.956 2.663 3.725 3.539 4.812 1.291 1.6 3.721 1.6 5.012 0zM18.133 9.5c0.668 0 1.309-0.263 1.781-0.732s0.738-1.105 0.738-1.768c0-0.663-0.265-1.299-0.738-1.768s-1.113-0.732-1.781-0.732c-0.668 0-1.309 0.263-1.781 0.732s-0.738 1.105-0.738 1.768c0 0.663 0.265 1.299 0.738 1.768s1.113 0.732 1.781 0.732z"></path>
</symbol>
<symbol id="icon-far" viewBox="0 0 32 32">
<path fill="#7c3aed" style="fill: var(--color3, #7c3aed)" d="M32 6c0 3.137-3.694 7.819-5.287 9.687-0.238 0.275-0.588 0.381-0.906 0.313h-5.806c-1.106 0-2 0.894-2 2s0.894 2 2 2h6c3.313 0 6 2.687 6 6s-2.687 6-6 6h-17.275c0.544-0.619 1.206-1.412 1.875-2.3 0.394-0.525 0.8-1.1 1.188-1.7h14.212c1.106 0 2-0.894 2-2s-0.894-2-2-2h-6c-3.313 0-6-2.687-6-6s2.687-6 6-6h2.487c-1.312-1.969-2.487-4.231-2.487-6 0-3.313 2.687-6 6-6s6 2.688 6 6zM7.319 30.569c-0.237 0.269-0.45 0.506-0.631 0.706l-0.112 0.125-0.013-0.012c-0.375 0.287-0.912 0.25-1.25-0.113-1.575-1.713-5.313-6.119-5.313-9.275 0-3.313 2.688-6 6-6s6 2.687 6 6c0 1.875-1.319 4.188-2.719 6.119-0.669 0.919-1.356 1.75-1.925 2.406l-0.037 0.044zM8 22c0-0.53-0.211-1.039-0.586-1.414s-0.884-0.586-1.414-0.586-1.039 0.211-1.414 0.586c-0.375 0.375-0.586 0.884-0.586 1.414s0.211 1.039 0.586 1.414c0.375 0.375 0.884 0.586 1.414 0.586s1.039-0.211 1.414-0.586c0.375-0.375 0.586-0.884 0.586-1.414zM26 8c0.53 0 1.039-0.211 1.414-0.586s0.586-0.884 0.586-1.414-0.211-1.039-0.586-1.414c-0.375-0.375-0.884-0.586-1.414-0.586s-1.039 0.211-1.414 0.586c-0.375 0.375-0.586 0.884-0.586 1.414s0.211 1.039 0.586 1.414c0.375 0.375 0.884 0.586 1.414 0.586z"></path>
</symbol>
<symbol id="icon-lock" viewBox="0 0 28 32">
<path fill="#3b82f6" style="fill: var(--color4, #3b82f6)" d="M8.867 9c0-2.763 2.238-5 5-5 1.994 0 3.713 1.162 4.519 2.856 0.475 1 1.669 1.425 2.663 0.95s1.425-1.669 0.95-2.662c-1.444-3.038-4.538-5.144-8.131-5.144-4.969 0-9 4.031-9 9v3h-1c-2.206 0-4 1.794-4 4v12c0 2.206 1.794 4 4 4h20c2.206 0 4-1.794 4-4v-12c0-2.206-1.794-4-4-4h-15v-3z"></path>
</symbol>
</defs>
</svg>


