<svg aria-hidden="true" style="position: absolute; width: 0; height: 0; overflow: hidden;" version="1.1" xmlns="http://www.w3.org/2000/svg" xmlns:xlink="http://www.w3.org/1999/xlink">
<defs>
<symbol id="icon-hears" viewBox="0 0 39 32">
<path fill="#fff" style="fill: var(--color1, #fff)" d="M19.429 3.429c-7.579 0-13.829 5.671-14.743 13 0.671-0.271 1.4-0.429 2.171-0.429 1.893 0 3.429 1.536 3.429 3.429v9.143c0 1.893-1.536 3.429-3.429 3.429-3.157 0-5.714-2.557-5.714-5.714v-8c0-10.1 8.186-18.286 18.286-18.286s18.286 8.186 18.286 18.286v8c0 3.157-2.557 5.714-5.714 5.714-1.893 0-3.429-1.536-3.429-3.429v-9.143c0-1.893 1.536-3.429 3.429-3.429 0.771 0 1.5 0.15 2.171 0.429-0.914-7.329-7.164-13-14.743-13z"></path>
</symbol>
<symbol id="icon-arrow-left" viewBox="0 0 33 32">
<path d="M5.044 14.587c-0.375 0.375-0.585 0.883-0.585 1.413s0.21 1.038 0.585 1.413l7.541 7.544c0.186 0.186 0.406 0.333 0.649 0.434s0.503 0.152 0.766 0.152c0.263 0 0.523-0.052 0.766-0.152s0.463-0.248 0.649-0.434c0.186-0.186 0.333-0.406 0.434-0.649s0.152-0.503 0.152-0.766c0-0.263-0.052-0.523-0.152-0.766s-0.248-0.463-0.434-0.649l-4.128-4.128h15.38c0.53 0 1.039-0.211 1.414-0.586s0.586-0.884 0.586-1.414c0-0.53-0.211-1.039-0.586-1.414s-0.884-0.586-1.414-0.586h-15.38l4.128-4.128c0.375-0.375 0.586-0.884 0.585-1.414s-0.211-1.039-0.586-1.414-0.884-0.586-1.414-0.585c-0.531 0-1.039 0.211-1.414 0.586l-7.541 7.543z"></path>
</symbol>
<symbol id="icon-graf" viewBox="0 0 32 32">
<path fill="none" stroke="#ec4899" style="stroke: var(--color2, #ec4899)" stroke-linejoin="miter" stroke-linecap="butt" stroke-miterlimit="4" stroke-width="0.8889" d="M0 0h32v32h-32v-32z"></path>
<path fill="#ec4899" style="fill: var(--color2, #ec4899)" d="M4 4c0-1.106-0.894-2-2-2s-2 0.894-2 2v21c0 2.762 2.237 5 5 5h25c1.106 0 2-0.894 2-2s-0.894-2-2-2h-25c-0.55 0-1-0.45-1-1v-21zM29.413 9.413c0.781-0.781 0.781-2.050 0-2.831s-2.050-0.781-2.831 0l-6.581 6.587-3.587-3.587c-0.781-0.781-2.050-0.781-2.831 0l-7 7c-0.781 0.781-0.781 2.050 0 2.831s2.050 0.781 2.831 0l5.587-5.581 3.587 3.587c0.781 0.781 2.050 0.781 2.831 0l8-8-0.006-0.006z"></path>
</symbol>
<symbol id="icon-present" viewBox="0 0 32 32">
<path fill="#3b82f6" style="fill: var(--color3, #3b82f6)" d="M11.906 4.3l2.175 3.7h-4.581c-1.381 0-2.5-1.119-2.5-2.5s1.119-2.5 2.5-2.5h0.137c0.931 0 1.8 0.494 2.269 1.3zM4 5.5c0 0.9 0.219 1.75 0.6 2.5h-2.6c-1.106 0-2 0.894-2 2v4c0 1.106 0.894 2 2 2h28c1.106 0 2-0.894 2-2v-4c0-1.106-0.894-2-2-2h-2.6c0.381-0.75 0.6-1.6 0.6-2.5 0-3.038-2.462-5.5-5.5-5.5h-0.137c-1.994 0-3.844 1.056-4.856 2.775l-1.506 2.569-1.506-2.563c-1.013-1.725-2.862-2.781-4.856-2.781h-0.137c-3.037 0-5.5 2.462-5.5 5.5zM25 5.5c0 1.381-1.119 2.5-2.5 2.5h-4.581l2.175-3.7c0.475-0.806 1.337-1.3 2.269-1.3h0.137c1.381 0 2.5 1.119 2.5 2.5zM2 18v11c0 1.656 1.344 3 3 3h9v-14h-12zM18 32h9c1.656 0 3-1.344 3-3v-11h-12v14z"></path>
</symbol>
<symbol id="icon-coap" viewBox="0 0 36 32">
<path fill="#7c3aed" style="fill: var(--color4, #7c3aed)" d="M24.778 0h-14c-1.656 0-3.006 1.363-2.944 3.013 0.013 0.331 0.025 0.663 0.044 0.987h-6.6c-0.831 0-1.5 0.669-1.5 1.5 0 5.787 2.094 9.813 4.906 12.544 2.769 2.694 6.144 4.050 8.631 4.738 1.463 0.406 2.463 1.625 2.463 2.85 0 1.306-1.063 2.369-2.369 2.369h-1.631c-1.106 0-2 0.894-2 2s0.894 2 2 2h12c1.106 0 2-0.894 2-2s-0.894-2-2-2h-1.631c-1.306 0-2.369-1.063-2.369-2.369 0-1.225 0.994-2.45 2.462-2.85 2.494-0.687 5.869-2.044 8.637-4.738 2.806-2.731 4.9-6.756 4.9-12.544 0-0.831-0.669-1.5-1.5-1.5h-6.6c0.019-0.325 0.031-0.65 0.044-0.987 0.063-1.65-1.287-3.013-2.944-3.013zM2.834 7h5.275c0.569 5.631 1.825 9.394 3.244 11.913-1.556-0.688-3.175-1.656-4.575-3.019-2-1.944-3.625-4.75-3.938-8.894h-0.006zM28.784 15.894c-1.4 1.363-3.019 2.331-4.575 3.019 1.419-2.519 2.675-6.281 3.244-11.913h5.275c-0.319 4.144-1.944 6.95-3.938 8.894h-0.006z"></path>
</symbol>
<symbol id="icon-arrow-up" viewBox="0 0 32 32">
<path fill="#fff" style="fill: var(--color1, #fff)" d="M17.882 7.371v14.276c0 1.041-0.841 1.882-1.882 1.882s-1.882-0.841-1.882-1.882v-14.276l-4.318 4.318c-0.735 0.735-1.929 0.735-2.665 0s-0.735-1.929 0-2.665l7.529-7.529c0.735-0.735 1.929-0.735 2.665 0l7.529 7.529c0.735 0.735 0.735 1.929 0 2.665s-1.93 0.735-2.665 0l-4.312-4.318zM4.706 21.647h7.529c0 2.076 1.688 3.765 3.765 3.765s3.765-1.688 3.765-3.765h7.529c2.076 0 3.765 1.688 3.765 3.765v1.882c0 2.076-1.688 3.765-3.765 3.765h-22.588c-2.076 0-3.765-1.688-3.765-3.765v-1.882c0-2.076 1.688-3.765 3.765-3.765zM26.353 27.765c0.374 0 0.734-0.149 0.998-0.414s0.414-0.624 0.414-0.998-0.149-0.734-0.414-0.998c-0.265-0.265-0.624-0.414-0.998-0.414s-0.734 0.149-0.998 0.414c-0.265 0.265-0.414 0.624-0.414 0.998s0.149 0.734 0.414 0.998c0.265 0.265 0.624 0.414 0.998 0.414z"></path>
</symbol>
<symbol id="icon-heard" viewBox="0 0 37 32">
<path fill="#ec4899" style="fill: var(--color2, #ec4899)" d="M3.4 19.172l12.907 12.050c0.536 0.5 1.243 0.779 1.979 0.779s1.443-0.279 1.979-0.779l12.907-12.050c2.171-2.021 3.4-4.857 3.4-7.821v-0.414c0-4.993-3.607-9.25-8.528-10.071-3.257-0.543-6.572 0.521-8.9 2.85l-0.857 0.857-0.857-0.857c-2.329-2.329-5.643-3.393-8.9-2.85-4.921 0.821-8.529 5.079-8.529 10.071v0.414c0 2.964 1.229 5.8 3.4 7.821z"></path>
</symbol>
<symbol id="icon-message" viewBox="0 0 39 32">
<path fill="#3b82f6" style="fill: var(--color3, #3b82f6)" d="M37.357 14.857c0 8.207-8.186 14.857-18.286 14.857-2.65 0-5.164-0.457-7.436-1.279-0.85 0.622-2.236 1.472-3.879 2.186-1.714 0.743-3.779 1.378-5.829 1.378-0.464 0-0.879-0.279-1.057-0.707s-0.079-0.914 0.243-1.243l0.021-0.021c0.021-0.021 0.050-0.050 0.093-0.1 0.079-0.086 0.2-0.221 0.35-0.407 0.293-0.357 0.686-0.886 1.086-1.543 0.714-1.186 1.393-2.743 1.529-4.493-2.143-2.429-3.407-5.407-3.407-8.629 0-8.207 8.186-14.857 18.286-14.857s18.286 6.65 18.286 14.857z"></path>
</symbol>
<symbol id="icon-arrow" viewBox="0 0 32 32">
<path fill="#fff" style="fill: var(--color1, #fff)" d="M20.331 14.644l-13.794-13.831 17.55 10.075-3.756 3.756zM2.938 0c-0.813 0.425-1.356 1.2-1.356 2.206v27.581c0 1.006 0.544 1.781 1.356 2.206l16.038-16-16.038-15.994zM29.513 14.1l-3.681-2.131-4.106 4.031 4.106 4.031 3.756-2.131c1.125-0.894 1.125-2.906-0.075-3.8zM6.537 31.188l17.55-10.075-3.756-3.756-13.794 13.831z"></path>
</symbol>
<symbol id="icon-location" viewBox="0 0 36 32">
<path fill="#ec4899" style="fill: var(--color2, #ec4899)" d="M25.689 7.5c0 3.413-4.603 9.494-6.624 12-0.485 0.6-1.385 0.6-1.864 0-2.021-2.506-6.624-8.587-6.624-12 0-4.144 3.381-7.5 7.556-7.5s7.556 3.356 7.556 7.5zM26.193 12.525c0.22-0.431 0.422-0.863 0.604-1.287 0.031-0.075 0.063-0.156 0.095-0.231l7.304-2.9c0.995-0.394 2.071 0.331 2.071 1.394v16.925c0 0.613-0.378 1.163-0.951 1.394l-9.123 3.619v-18.913zM8.664 8.644c0.151 0.881 0.453 1.769 0.806 2.594 0.183 0.425 0.384 0.856 0.604 1.287v15.713l-8.003 3.181c-0.995 0.394-2.071-0.331-2.071-1.394v-16.925c0-0.612 0.378-1.162 0.951-1.394l7.713-3.063zM20.639 20.75c0.875-1.087 2.248-2.856 3.539-4.812v15.581l-12.089-3.431v-12.15c1.291 1.956 2.663 3.725 3.539 4.812 1.291 1.6 3.721 1.6 5.012 0zM18.133 9.5c0.668 0 1.309-0.263 1.781-0.732s0.738-1.105 0.738-1.768c0-0.663-0.265-1.299-0.738-1.768s-1.113-0.732-1.781-0.732c-0.668 0-1.309 0.263-1.781 0.732s-0.738 1.105-0.738 1.768c0 0.663 0.265 1.299 0.738 1.768s1.113 0.732 1.781 0.732z"></path>
</symbol>
<symbol id="icon-far" viewBox="0 0 32 32">
<path fill="#7c3aed" style="fill: var(--color4, #7c3aed)" d="M32 6c0 3.137-3.694 7.819-5.287 9.687-0.238 0.275-0.588 0.381-0.906 0.313h-5.806c-1.106 0-2 0.894-2 2s0.894 2 2 2h6c3.313 0 6 2.687 6 6s-2.687 6-6 6h-17.275c0.544-0.619 1.206-1.412 1.875-2.3 0.394-0.525 0.8-1.1 1.188-1.7h14.212c1.106 0 2-0.894 2-2s-0.894-2-2-2h-6c-3.313 0-6-2.687-6-6s2.687-6 6-6h2.487c-1.312-1.969-2.487-4.231-2.487-6 0-3.313 2.687-6 6-6s6 2.688 6 6zM7.319 30.569c-0.237 0.269-0.45 0.506-0.631 0.706l-0.112 0.125-0.013-0.012c-0.375 0.287-0.912 0.25-1.25-0.113-1.575-1.713-5.313-6.119-5.313-9.275 0-3.313 2.688-6 6-6s6 2.687 6 6c0 1.875-1.319 4.188-2.719 6.119-0.669 0.919-1.356 1.75-1.925 2.406l-0.037 0.044zM8 22c0-0.53-0.211-1.039-0.586-1.414s-0.884-0.586-1.414-0.586-1.039 0.211-1.414 0.586c-0.375 0.375-0.586 0.884-0.586 1.414s0.211 1.039 0.586 1.414c0.375 0.375 0.884 0.586 1.414 0.586s1.039-0.211 1.414-0.586c0.375-0.375 0.586-0.884 0.586-1.414zM26 8c0.53 0 1.039-0.211 1.414-0.586s0.586-0.884 0.586-1.414-0.211-1.039-0.586-1.414c-0.375-0.375-0.884-0.586-1.414-0.586s-1.039 0.211-1.414 0.586c-0.375 0.375-0.586 0.884-0.586 1.414s0.211 1.039 0.586 1.414c0.375 0.375 0.884 0.586 1.414 0.586z"></path>
</symbol>
<symbol id="icon-lock" viewBox="0 0 28 32">
<path fill="#3b82f6" style="fill: var(--color3, #3b82f6)" d="M8.867 9c0-2.763 2.238-5 5-5 1.994 0 3.713 1.162 4.519 2.856 0.475 1 1.669 1.425 2.663 0.95s1.425-1.669 0.95-2.662c-1.444-3.038-4.538-5.144-8.131-5.144-4.969 0-9 4.031-9 9v3h-1c-2.206 0-4 1.794-4 4v12c0 2.206 1.794 4 4 4h20c2.206 0 4-1.794 4-4v-12c0-2.206-1.794-4-4-4h-15v-3z"></path>
</symbol>
</defs>
</svg>
